<mxfile host="65bd71144e">
    <diagram id="BJhqA1g_jeMZgCWn-SGR" name="Page-1">
        <mxGraphModel dx="826" dy="708" grid="1" gridSize="10" guides="1" tooltips="1" connect="1" arrows="1" fold="1" page="1" pageScale="1" pageWidth="850" pageHeight="1100" math="0" shadow="0">
            <root>
                <mxCell id="0"/>
                <mxCell id="1" parent="0"/>
                <mxCell id="2" value="" style="rounded=0;whiteSpace=wrap;html=1;" vertex="1" parent="1">
                    <mxGeometry x="20" y="10" width="800" height="570" as="geometry"/>
                </mxCell>
                <mxCell id="4" value="" style="rounded=0;whiteSpace=wrap;html=1;" vertex="1" parent="1">
                    <mxGeometry x="150" y="10" width="80" height="160" as="geometry"/>
                </mxCell>
                <mxCell id="5" value="" style="triangle;whiteSpace=wrap;html=1;rotation=-90;" vertex="1" parent="1">
                    <mxGeometry x="150" y="94" width="80" height="120" as="geometry"/>
                </mxCell>
                <mxCell id="7" value="" style="ellipse;whiteSpace=wrap;html=1;aspect=fixed;" vertex="1" parent="1">
                    <mxGeometry x="170" y="410" width="70" height="70" as="geometry"/>
                </mxCell>
                <mxCell id="6" value="" style="rounded=0;whiteSpace=wrap;html=1;" vertex="1" parent="1">
                    <mxGeometry x="150" y="114" width="80" height="44" as="geometry"/>
                </mxCell>
                <mxCell id="8" value="" style="ellipse;whiteSpace=wrap;html=1;aspect=fixed;" vertex="1" parent="1">
                    <mxGeometry x="213" y="411" width="70" height="70" as="geometry"/>
                </mxCell>
                <mxCell id="9" value="" style="ellipse;whiteSpace=wrap;html=1;aspect=fixed;" vertex="1" parent="1">
                    <mxGeometry x="251" y="412" width="70" height="70" as="geometry"/>
                </mxCell>
                <mxCell id="10" value="" style="ellipse;whiteSpace=wrap;html=1;aspect=fixed;" vertex="1" parent="1">
                    <mxGeometry x="290" y="412" width="70" height="70" as="geometry"/>
                </mxCell>
                <mxCell id="11" value="" style="ellipse;whiteSpace=wrap;html=1;aspect=fixed;fontStyle=1" vertex="1" parent="1">
                    <mxGeometry x="330" y="412" width="70" height="70" as="geometry"/>
                </mxCell>
                <mxCell id="12" value="" style="ellipse;whiteSpace=wrap;html=1;aspect=fixed;" vertex="1" parent="1">
                    <mxGeometry x="360" y="412" width="70" height="70" as="geometry"/>
                </mxCell>
                <mxCell id="13" value="" style="ellipse;whiteSpace=wrap;html=1;aspect=fixed;" vertex="1" parent="1">
                    <mxGeometry x="400" y="412" width="70" height="70" as="geometry"/>
                </mxCell>
                <mxCell id="14" value="" style="ellipse;whiteSpace=wrap;html=1;aspect=fixed;" vertex="1" parent="1">
                    <mxGeometry x="425" y="411" width="70" height="70" as="geometry"/>
                </mxCell>
                <mxCell id="15" value="" style="ellipse;whiteSpace=wrap;html=1;aspect=fixed;" vertex="1" parent="1">
                    <mxGeometry x="460" y="412" width="70" height="70" as="geometry"/>
                </mxCell>
                <mxCell id="16" value="" style="rounded=0;whiteSpace=wrap;html=1;" vertex="1" parent="1">
                    <mxGeometry x="120" y="410" width="410" height="20" as="geometry"/>
                </mxCell>
                <mxCell id="17" value="" style="whiteSpace=wrap;html=1;aspect=fixed;" vertex="1" parent="1">
                    <mxGeometry x="530" y="330" width="150" height="150" as="geometry"/>
                </mxCell>
                <mxCell id="18" value="Seller" style="text;html=1;strokeColor=none;fillColor=none;align=center;verticalAlign=middle;whiteSpace=wrap;rounded=0;" vertex="1" parent="1">
                    <mxGeometry x="575" y="383" width="60" height="30" as="geometry"/>
                </mxCell>
                <mxCell id="20" value="" style="shape=image;verticalLabelPosition=bottom;labelBackgroundColor=default;verticalAlign=top;aspect=fixed;imageAspect=0;image=data:image/png,iVBORw0KGgoAAAANSUhEUgAAAKAAAABQCAYAAACeXX40AAAAAXNSR0IArs4c6QAAIABJREFUeAHtXQVYVVnX3vdyLwiIdJjYObaOY2K3YwAqCIIgKiomKC22oNgdWGOPgSIGqNiKgUHYiiAq0g031s97OMfvfkw5o/PVz3me/Zy4J/bZ+91rvSv2uYxVLBUtUNECFS1Q0QIVLVDRAhUtUNECFS1Q0QIVLVDRAhUtUNECFS1Q0QIVLVDRAhUtUNECFS1Q0QIVLVDRAv8/W0D0//O1K976X90CAJqYMSZljKkzxtT+oALC+ThPonKdBmOsEmNMky9a/BrHUPA7Cp6B6/BM3APriuV/tAW+tHMBjBaMsR8YY2Zf0BYAji5jzJwx1pwx9j1jrDdjbCRjbDxjbApjzI0xNoExZs8Ys2aMDWaM9WGMdWKM1WaMVWaM6fBg/IJHVpzy39IC5VUn9rswxux4UExnjM3kizdjbDljbCNj7BRj7AxjbCtjbBZjbCxjzJW/Bud7MMZ8S6XZMsbYOsbYllIA7mSM7WeMHWGMnWSMXSgF2XXGWDRj7B5j7A5j7BZj7AZj7FIpUMNLgX6Mv251KYhXlUrABYyxqXz9ANDujLGhjLFxPJBd+N8A8LY82FsxxuozxmrxElW1b8q/v+pvFdv/ohaAOjXipcwQHljpjDH6m4qMMVbAGMssBc0nxtgHxlgqYyyrFLj5jLFixlghYyyP3y5fD1ybViol7zLGrjDGnjPGSlTqmsMYu80Y+5kxFsoY28cYW1Oq4gMZYwBoowpV/i9C1m88pvyor1HagZBuGxhjl0vVYjIPBqHjlTwgAJhsxliRSmcL55RfK3jwAMhvStVtfKmE/MgYE47jHgAbQIa1UAAuXPOeByeeBzACYHLGGOqCtQBggBbbuK9QB5yD++E+KHgu7oeC84MZY+CcFcu/uQXA3yARIkq510u+swAMgAIdB0ki7AN8kFKQWNhGBwMU6HgBFJBsOIZrAIpc/vwkxthr/jqcCwkHEOFaAVQCeLDG9QAdzlU9/rvbIpHod38X7iUSi1E30IFqfPtjQJYflP/mrvnffbzQ0FVLpUAQYwygUe04SJxXjLEEXmpBvWEfUuwtX17wak84DnBhGwXbiSrnYlvYx28pPMAFiQWwQULh3u/4gnMAdgwCqFr8jpLBg1PORCIAHb/h3gA4pDbWiZV1dd8bVa+erm9mmm5YtWqGYbVq6WWlaoZEXR3gE94XEh9WuLAIbSPsV6z/hhYQGtmCl3DERCJINEg7dAxUFAyCq7yRAJUMQwGGwU1+jWMwEqIYYxf5NY6Bj+E6nH+N34ehAQkbyRsuMDLwDAAQBYCP5rnaaZ5/ni21sFFg5MBYgdFylK/POyYSyUQiEaQrng0QQZrtYYxth4HUfbT1sXFLFlwa7elxzmGB35kJQUtCJwQtO+60dEFYtfr1QAUgdQUQzlVpY6FtVA5VbH6rFlD118GFArCQWCyGKoXKpe+6dIwfOH3ymu6TJ8we7T0nIGjb1v0rtm05aO/ntXCkp/u8sQG+AbY+cxfbes/ZUqNh/VMSiSS071jbjS7LFi10WODnP9bfO8B+ns98O3/vBfZ+PvOx7xDg4+8439fPIcDH1//wfp/edjaH1SQScDFIsBKxmtrHNr17hk5dt2qe87JFc2zm+3o4zPf1GrfQ32ukv/dshyUL3KesCp41IWjJHKdFAcF1WnwXI6jtBm1aH9hw8/KYaRvXuE1ZtXyG66ogt5lbN0zeeO+Gx6HkV3573yR4H0p57XU86/2ckzkf3UOz3nv4HtyzwrxpExgvHADFYjEAaanSyF/qilK5pGLzj1pAdWTD2j0hdABUmkgkymrUrt1d77CjfkTkQEQLiWgbEZ0noq3FRDa5RCOIaHgakf2x9HfLm3XueE1DUzNqyenjwflETkRkWUA0GqWYX2M7m8iWiEYR0eBDSS/nte3TK0ZNIoEqheTLkqirv3NaErA/n2g8EY3MLTsXz9+gIJqRTTQWx/DcEiLnAU4OcMuAQxLATEQD8dvHsjI2mcjhOZFdLJFNHJHtIyLbGKIxj4jGxBONJiJr34N7V1erV++1mkQiSEGAcES5RlRts3I/Vez+1RaAH2whz5fQ+FCB1LjD97eOfEj0CqXiMZ+INslI+U5GyuR8Ut57SbLVF6lowhkqdLxDNPZEduqUhaE/bzVv2uSJeqVK8eODFu89I8ubdZtobAQVupQvF6jQ5QaRUzrRqGZdOsKvh+fCuOD4nkQq/WA1e9qBG0QTbxK5PCSZdzbJrxaQMiGR5FtvUNH0U1TI3VtONHKQyzj4FOG2ofb9e114STQukoomXKIS5/LP/rV9APLw+zceU9asPGJWpza4JuoDXhjGGOv4Vxu24rpfb4Hy6gSRh8disVgY+dSobZtHfhfC3O8SOaSXSbu4HJJHJ5J880Mq9kYnHqQC68NUMOoGke2p7NQpi8KOba3drMkzdQ2NF+MWBhwKy0t3v0NkX77DIxX5E54SjT36Icm5n8OY2SKRCOqzDIAiURwMHYlUmjpq9oyDF4lso4lcs0h5ppCU8R9JeTiGf/45KuTABUk8ZPIEH95VpGzfv8/T04WZAedKcl2vEDmWf/6v7V8lGveAyOnw+1cexjVqgHOCT4IHo17wFRqqNGX59lP5qWLzj1pAUCFY1y11gSCicVfVVVG/dcvnC8NPLCIiqySiZSVEL/OVisd3qXjuZsoZspPyhz0m2bxEkm96RbI1T4imHc/96BoYcXpTnebNnks1NBLt/b1PHMtI8bxHZFe+w8/L88cXEtmtuhLpJVJTgxEC1QnpB2sYEueWRCpNGz7Dbf8tIqcXRItKiN5mkfwypC4k33EqsDlLheNw70Qi+4WhR2fXbtYUFKKgiqGBbNhU158PJr1we/Irzy9fH+yfK8md8JjIPoHI1nnJgvnauroP+EFBIpEIhhic1e3KNa7QluUOV+x+SQvA14eR/U8+tQZt2jxZfeXCqjAiu3dEATkkv5FPygcvSbbyAOVaRVGR63OSrcgi5aVCUsZmkjLiDZH30dxPE1dcOr++bsvvnkk01JNtveeEH/7w1gc8S7XDoXrvE409V5LrZjnL7aBWFR1wPlKTqH3UrlIlQqOSxjZYzJCAA6dODHlD5JNBdKiQ6BEAv5dyLXGPa1Q09TIVTcG9o4nsLlCR+8TgwON6Jiaw3EnHwODW1ofR0z8R2ag+//e2BXX9lGjy8GlTDovEYrh7YBRBCsK1A6saYbyK5Ru0QFO4TkTifzhpazRqmDFr8/qfwnLT3E4RDUshxbYiUr5IIvn241Rod4OKZqSR8lQRKZ/nkfLeB5IfiKXiBdFEjmG5aa7rrketrd+qRTwHQC+Pc4dSXvmqAhBS5hLJYVQMn7B8aZC6hsZrkUgExzIZVa+WYu0x88R3XTrBfRIlkUiS+7lNWpdBtDyPKCqLlBcTqHjJMSoYjUHwhuQb35B8HdTwRaKx8UTjPffsWKNnbAy/H+mbmibse/3EtZjI8pwif8LvAa/8b6+I7JadPRXYediPD7T1dLkBwlvY8DkiWlJdpf0r1LFKY/zepmpD1eED+pzfS12zUl791i0Tpm9YvfM+kSuMiggi23eKkp/ySXn/PhXPTSDZ0nxSPiwk5aMsUkZCIkZT0WwYIZeIRp/Jz5i87WH0ivptWt7X0NR867hw3qUjHxMDYohsyzo43+U2kfM5eb7z2puXx1QxNEQstoz3MUbGNWtE73kRu3CA01gkFVxXk0rftHexX1JMtEdOlPiG5OshgSH1Ukn5cx7J7ySTfCcAiDp8IrJddSnCXUNTE/5F3C9t2fnTq58SuUSRnFPV5YH2y/18zlgCb00gcll48ueV2rq6SITIE4lFgo8QljpAiIwfYYEqrlDHQmt8wXot3/kAQK5xzRqXg6+cD3xP5PiQaDQ6JlKRPxGWbjopw5JJHgI1LCN6l0LyPeBhu6lg+BkqdDhPheNvEY0Lz89w3ZnwaGnj79vdFYnEb3vbjTmz+f5N3zheBV+gwvEJRI67X8S56ZoYQ8q9UuGd6R0GD9x9m8ih+0grZMrESNTVk4bOnrGWiM7Iid7dJZn7RsoeBDUsI2USqEEMFfvg+Weo0DmRyC4k4dHUpp067IC61K5SRd7H3ub22ltX5r/m3+mXgPuldY5zIKk/ENmEFaY7t+xuAbWLcCQc3PCNos2gmg+VOry7lWvrChCWaxBhV7VhvPjGBLlGYz4yNDMLDIm7P+0Z0bhLVDIenRBKhXaPqNgvg5ThxaR8nUfyWwlUvBRq+BwVOgkWKM69SeQYXpThuufpwyUtLLo+4kNfe6auWzE9mXfDXCa5UxzRuJUXz/ob16iOc/BsrjT9ocPzLTE3A28SjW/TqwfCgPEalTTe+61ddYKIrhQRPbpNRTNjSOaVQ8pr+aSMe0PyDceo8DO/fEBkfzQ1yW3u7q07ajVuBFVJampqr21856yAj+9LwSech8EQlpvhuvzimeDGHb6HQQKnPNwzACKMJhhMSAOrKTRyRSaNSkv8xiasuDs88KBSEAvdte3hnbGXqAT+PCe4SAQAQvWmkHx3BinPviL5WlifYVToAOsTUlDorOtE484WZU068v71vLZ9eiOkhjjxFjs/z6mQqjjvMhEHwKDI8PlGNapDogB8nAHUaejgUCIai+e3tOi6kjEWq66h8cY9OGifjGjZK1IEXaKiSdFU5I56vKSS4OtUNO0EFfLqvdDlOpEj3C6hme8D2vS0eCzcv6+j3WYi+lGo65euI6nE+SKVTHhDNNlilCXyHBGGTBSJRQAfCqI2z/h8xl6/0t6qg/5Xfv7/dwhZxyt4aw6hto9VDPQi/Y78NAcSAk5hqMnLJHdGiSS5w12iaXFE3neIpoDoRxLZwV92lcgJoEPBPpzN10qjEbeJZnb6cTBitU+Qa+eybNEsIrK9RzQunmjsWyLHVdciFxjXqokIA4nV1IqqGBq+cAlcvAQREZzXsocFAPhYTSp9OcpnzrpYIstjJLcGIAD8o1Qw6ggVW5+lkrFRVOICyxX1RZ1QMojGtOnVAzFmAFw+bKrrdhg9fH0d8Z53iJwBdqHcJ3LCsx8QjYshcsQa+7Fl0R+rjXdvOpjWrrVZIpHgvXBfJF0cwEDhwYgYtyOfN/ktkfU/BWJIv3NCfFdLR+ehw0L/kCgiN6gbqN4LVDIea9WCTuY7WvW4MzpeKOjcC1Ticodoaschg5ERjeyXcFsvD99CItsrROPherlHNHHekX1rjGpUR3YKVdbXS7XxmhMalvfJ/XWpM1kFgPFSqTTRzt97M0ALgGFwQHrBBcMXrr6os1BvAJCIRrTu3ROOZADlw+CJ40PelVELANUJVjjq82sFg6h8gYWPqMq09WuCtXV17/P3Rcw4gDF2kA8dwpKHVJ/NGDP4lgj8X7gXJu5gwZwKpDKBw1w3rF519f63T2cTkVMs0QTe+p16nWjaNaIZV4hmXqSSmeGynNknslI9f/6U5H8o+cWCfa8SFoc8eRCIsvtp7NLdz2OX7XweGxx4/nSw1czp3pW0tUHOIeEuVK1bJ7ib1YjZLXtYzG/bq4df2149l9Vt/t0xdQ0NzldnYGYWvetZrC/ixXyx6mk72h0ZMlIN9Vj37RuD4QxHqC2PyDaNyO49L0lhpd4lmgzQ3ySaFkWKWZdI5v6JaNIPQwae54FSWElb+zwSJUISYpYfTH65evb2jfO/69JpWptePea06dPLu13vnj6tenaf18qi65LmnTuuavZDhw1NO/6wrknHDuubdmi/pWHbNjtb9rDYU7dF8wvwTfL3hSUMXvhUGND8cXDbzbzTGom8ACQc/ZjXgmkJyLF0LtUQo0up0KBSfydUNwwZCIdmpRLVqpS+jOG3/6MTYzEjDJN5kDiJNPKWvFugJz9pB5N3MKkHKUVwayzh06AgFZDndwdA6TJi6J5h06bs621ve7yX3aiTPWxGnuk52upCN+sRUc37Doyo06XX2Xpde0XU7dLzYp3O3a/U+cHipnnHbneqt+sU07CLRVyHQQOedhk6OL7L8KFxLbp1QeMjDeqOWCx+KxKLwY/AB5GGBcmBApUF6YdYs0xLR+f6ENcJi913bp3luDBggcN8/0W1GjaEhX5eLJHcb9+/zyFkuoyYMXXt0Kmum4a4umwf6OK0e4Cz476+DnZHeo+xPdHLzuZkb9tRp3uMto7sZj3isoWtzQUTc3NOwvJhtDQmlsTU/sHibuNeAx6xykZIB0MqF7QBClK7EI1BPSHZACxhDgp4H0KDKJBw8AkKjmmSStTQnjBMwDmhlhGLRmIujCCc/xAWPX9PtA8KzkW7gKoggQIpZYcxJ0YsFqF9kG8JGoK5Kv/yBTof/jrMxRCmJgrTEvVKPfHgcW1K8+QG8hJtDh/N2M3n1CF/Dh2PZEyMViGfD8mdQlYyjA+oDLgS0Hhw3ApzL3AMOXk56mqssIqWtLiypqSgsqYkH0VHS1qooyUt1q2srqgkFeN+sAwhDRAlwHW5IpEIAXzcHwVkHc/jkht4KYFOQ8Hv6DSAFiAAANAx95hIhI5CZ6ADsQ3uBcMGya+oLxIWUGcYAthHwbaQrAopD6BwQJeoifJ0tCTZOpqSnCqVNfL1dbXy9HW1cvV1tTIMdLU+oujraqWi6OlqfTDQ00401NN6jmKgV/mlob52PIqBnvZbQ33trMraGnDHoG3zNNTVXpga6Vw0NdSJMjLQuWOorx1nqK+dwK8fGeprxxrqaT/FtfxzMvV1tTK55+pppRjpV07X0dZAqA/tKLQN2gEzBP8tC6YZflc6UpCLNqk0LcqTn3EWguRLDakaOkoYVVB1UAMYNVwQn9/GKMPkG4xwJGzuZYyBF2F04zy8IDodzmBM0BFGIUYiwLzHZ2rfl3dOetDFA27KiJ+mKm6HutOTi3709KIfpT0IpFPbJqDToW6Q7ImkUwA/RSJRAwABOiH9Hh0FoEMq5YnFIlKXculOAAmuQX0EwKHe2Ia0RP1B7nFvJLgi0RVOZqhXSA9k0BznJxbB94dsmM01TauAAqDgGkisl327NU6IOjRdeevEbIo6NJ0uH5lFV36eRVePzlZcOzZbzhfZtWOzZdePuZfcOOFRdCvUo/BW6JzCm6EehdGn5hbcCZubj/0nUfNo6zLbjxpSCaTmjeF9WyY/uxyQ+eTSvMx7pz2zo0/Nzbt9ck4+irCN624cdy/G/fHMqz/PUlw9WvbchEvzaNMSGwwetP1LqZSTqqj7Nwv5/ZYlA0lXrzQBFGrzx9LUcyexWOwjFovhW0IDAmgADMAFSSGkucdL1MTv7C070OwJvWmWSy9yn9hb6Tm5b4GP24DMeTMGflwwe3DSMs9hT1fPt76zdalt1N7VDuEbF4++tmTu0BeLPH58FeQ9PA6/rVtgfWvDotHXNy62ubp5qc2VzUttL68OsD67d43jecoISSOKJKKzRHSRqHjfm3unva5En5r77H64V8FKP8skNTUREgcAbEheAAkDgpNiYy07ZMybOUjm49Y/12/6wE+r51l/GtavBSQlJFdS53Z1PyzzHJbt49Y/z2tKv1wft/5ZvtMGZPhNH5AWMHPQh/mzBycvdB+SuGTO0Bd4lyCvoQkrfEbErvS1fLjK3ypmue+IOzuW298J3z3lTtThmVdunPA4czfc6+yzywGX74d7RU2y73ZPW1MdkvLwAvchJ4gOEdFx4tbKQ0RcOUik+JUiP0BUvL/sNzoJXzgRwVOEe4RTxuMVb3W0KwH0YbNcemUR/UxEh4lK9hPJUA6UbWOfO3aACPfEs5R8wTaOoU6ZIVmh2yZFmdcwQh9DhQOMmCf9TRdkHkOdYqZZBzU1Npyfe4FRDVWDuQ+QFO9NjHSKmzaoSo3qmRY2qW+W8V2jai9aNq1+t/V3Na9pa6sfCJg16Cylbs3+/NJF+4gKfyorBXuJ8vcS5e0hytlNlL2LKHMnUc6usuPlf8M5OBclfw8Rrs/ZRbkJq0qeX5mf9/LaAkX6o+XkObkv0u4xOAA6SCcMirRqpnqK7xpVUzapb5bWrFHVRN3KWuemOHY7q0zckEZ0FMAtqxeF0+UjM6FmkMJ/bsOi0a8JnYsOE+qONZ4vvAPqI9QN69zd/yh4j7QdVPxibUluwipKe7icsuNXEqXA7RdKL68toOpmepC6632nDfiJkjYRfdxG9Hbjl5V3m0n+er0yOXpJSfSpOXnxF/3yi1+sVeB9Hp7zTtLWVP8JEnrcyI5FlBFC9Gn7l9233PMVbzYoKTOEa4cpDhagDRjE0EKI1X/TBRxuAD95+6JUIoZ0gwqCCgXHAfGFKty6YeGo+E8PgujZ5QDl8yvz5a+uLSh+c3NRQeKtxXmJtxZlZjxekUNJm+T0YStRypZyZXNZJ7zbTFS+oHNQhOPolLQdZQAAUDAq6QhAW7jY48dozUrS680aVk1r1bQGqamJwdlArFFf1BVzatfuXe34LOPxCkI9X15bUPLq+sLcTw+Ccujtxn+uHx2isF2TwdGgUs8GeY94xYEToPgz7yDUPX8PJVz0T+zUru6BZg2qXqpqpvv0xz4t3r25sVBGFEYxZ71lVU10QRN2zJ3U9wgHwNQ/AcCc3ZT+aIVsYI+mkEpPv29VO+PNjYVFkFgPz3MAxPtHO1r/IP8aAHIDIm07UdZOGjeyIzgzBjZ8jKBh32wx5c1v5KuB6KPctLfs8DJi/zQ6tdO1JGL/tE83jrvHx0b6RZPyUCrRJV79hRPRaU70l63DiAgRqiNlgIG4R+HEOVTE4TL1khFCijcbPo9KReIGJfeyGG1QC1AFdJze3V362nNq35sBMwZ+8HHrT27julP/7s2gKqFKIe3AIw82a1jtxbbAMbR6nnXxpiU2qbtWjo0J3z01ilK2pHIqCAAu4iVY1k4O5IrEfzwfku7kjkmwDsFvzi2ZO/Q1J6kBqHJS4Yv26TAdWO8EFQu/I0CN9YnHEb6ZUJN3T3vKzIyrQKP8NMul94k/DcC0HZT3dLVi81LbTyP6t/oY7GdZmP5ouQztey/cE4IDIcOLzqM70VcDENIzfQc5WP0A3owQ3+FvrYIb8xIDwIOlAyv1yArfETdkr9bRh/uB9PbWYnp1fSEkCd077UlRh2cqQJavHQNRdpdfPTpbKRQQaIFE3zjhXnIz1KPoduicIpBpjuQenZ2X9nB5AWXtVHKqASMfki51G5716fbJOR9vn5pT8jQqgGyGtoM63cVLNRgBr81rGGR3aV8v48c+LRKG9WsR0bZFra1Pr8y/y6lM8CAAHuoSKvH9FqgqxR+CRnaAQndMggTEpKdLiz1+TPoqABbvRxvIO7erlw3p1K6F+Q33ib3PpcYEZhEdo7thHADBNw/PcO4ZzgHwT6hJ+Zv1SkreVEYHwPEwaCGp03ZQyp2lSeNHd8KnRG6PGtJW9jUAVCZuLOubnN3kYtMZWgbaEOodfsGvXgQDBD4dWIsYsQAgLMVMLU31t6ZGVV4ZGVR+Z6Sv/clQXzvDUF8700BPG26CYgM9rQJDfe33Bnraafq6WkUGelr5BnraWVjr62opDfS0cg31tRON9LVfYY3jVSpXwkvEbw+ye0V0qKxxwFHAq1K3KX3c+sP6PW6or51iaqQDTgbXBvxf8HntGjmkbVhm7ApF8ct1lBO/Up77ZFVx7pPVhbJX62Vch0Btc2UjUdIX8ilIuH8AEMbVlYXuQ95xdfqrEjB5E5W8WqfMjA1WoL7ZcStLCp6tKeY4lfwgJGCJmXEVWJdHp43rfv7PAvDzgMI7Cu+L9wAoU7fJip6vzWlYxySte8cGeV8HwA1KSD9w3Yl2XeHWAjUDVpp8Nfr4G0jV1DinMG4MtwB8PjliETf/Ar4zOEahmjF/FW4NFHAXEGi4Fvx5hyW4AaQH3DEAEUCMe2IkwjUBvxnAB4BnVpIYZ4zo27XAwapT/ozxPV74uA145jy6EyQQJB4MH5R1/SyaXrlwcDod2zoh48hml7jEm4teccQfEk4wYGDEvN9Kn9X4X1GZsgOCCgYAb8yfPfjD1wBQ/no9cRxYMFJgZEHKAyAl+8sAaFIFA/7ElLEWF/4IgIo3GxTc/SDVYeBwxhBv2KEtYOiBZqBwFvFJ6tahQX6vzo2yiU6VWbOchQsaxFMh0KFflCNl9AkUiisnUe8PO1eMDTMx0kEfQgXjw07Qml+/SCTc58bAezI6dmI5QctZ+lxPlmNuzjlxIX3QIfBrwR8HVQiAwRSHVby01ME7g1ffsJRxDkI6mJ8A/xpENT4ahHMAqGI1NZZqbKQW3bsfe9OoOQdGOE3hxOUs7XYtauVOcbDIGG/T+a7diPYhaY+W3+dcATBAYJECbG83klLgjH8FbL92jWw/nQqZDJUIvnYzYOagVI4zgh7AmPq4lSh1e5k1CVUJMKFAOnAlpIxrQZoLBXwW9UUB7xQKhcKAk1Uz5YyQcLdx3W9wHgFQBwyqXysFe/HOWQ/P+Ty+eXLO49sn5zy/Eerx8sZx91fXjs1+c/nIrORLh2akXDg4/cO1Y7PTI/ZNy6tT0zC3cT3Tgoj904oj9k3LD9s1OfdUiGtB6I5JRce3TZQd2zpBfmzrBMWxrRPAV5U7g+2LQ1bYl6DsWI5iJz+2dSJNdbSAcQdfbXylSlIIpW+mgoFgfJIMquD58VD2iYgps3OZwtKKU33wn8HxCk4Igg7ggSciyoA1VCPACfUIawwSEKG1TXzkAb4oeMyH8SS8QE+P3Q9awVYQsaiYB4xq1uJACKlYqK4uSYs6PLOYMxoEaxLq5dcA862PyQ6oAjB63sxBaRyPTN6khPRBkb9ZrwCfLF9kr9crZK/XK39RXq1Xyj6XdUrZq7KC+94+OaeYV8E3HSw7xAkSs+TVOqjufyrg4eDKV4+6wwWCjCFkPCMRFZYuLFIMfBg5MMgw0GGggathcMPpjv6FhsIxgAn9CS3GudVUIjQQGp+1IH89nPOZUqlaurgs1QsYQPDgm/iSsVojAAAgAElEQVQBEVJbU7UqU/r5s7cfUlkuESO5kskXLuJighC5KHhZfF8Puh/RCahfRAEQBZnMNwTOg1WK+bvwEyGSAJ/aesQ2RSJOYipMTFja3XvsCRFLS8tg5OPLCszMuLy7PA11SVL0qbmFnBUNKQIfIFSO4AsU/IBQP1A7qqqHc6jyTlZY3IJjFZIT5Z/Uz6+poQsUfWouGhf+xMcbF2Ou+qns19cXnb9wYPrRw5tdjntO6bdzqmP3XdOcehx2HdstdIJtl3CnkZ0uOFj/cM1+RIdbY4a1u2vzY9sHo35s92jkkLbxloPavLAc0PrN8P6tkof1a/nxx74t0ob0aZE+akjb7M7t6+Wrq0tASbKqmermDejejL5vXaeonrlxdsO6JuBvOQ3KSl6DOib5LZpUL9RQl0LroH4oGPQocDmBtqAI24LggLSC7w5gg4YRzgOtgoMe9AjSbK2ZcZWz+9aOyz28cXzhoQ3ORUc2jZcd3jRefmijs+z07inyS4dmUN9uTcABv5kRAgMECQO7TE0ZBQSw2JQPLAcAzM1nxQsXc+4ISD+MGIw4J16VwtkLMx8vP7/0y5+L+FGHl8QxBNIxAvHikJKIQECVo7ELe/Zk2W8SGeE5CmIl7z+y3AEDOYmaWKmS9MrTywGf4KagrJ2FOfErn98P97p28cCMqxcPzbgdsc/t3tm9bg/Dd099HLZzSlzoDtenx7ZNfHF0i8urw5vGv4XbY/86p/d71zim7lntkL57pUPmrpX2WSEr7HN2LLfL2xZkV7At0K5oyzLbki1LbWWbltgoNi2xoY2LR9O2oDEKywGtIQGghrP6dG0s85rS772hnjb4K0JqAg8GF0aaE6QOjqEjIXkQ+kLcWOCv2IY6B4VBh2PAYg0tAa0B7VFQpXIlSH8M6AgDA+1nQ/u2KOjbrUlOP4umuf0tmub3s2ia37dbk4LeXRrnWg5oXTTRritNHtuNXO27KSeP7Sab4mBR7OZokT/NqUfONKceWW6OFunebv0+rfAdkbZ5iY181JA2kH54LsKH6Dd4Eq652HaJitw/7fLa+daRHpP6HI45432blAflREeUv+SFcKudpJnjewLQuP6b+QEBQoArUyphty5FsTQAIyuHFdvafhblABY6AQYH1CsyISDO8WJwTKMg9gvfHEQ7GhaqAoBDZfGFUHDF61qa7P306extcgorxnOIWHF+Ifs4eAh3bqKGVHLhxA7Xd8q3G+HNT/We2h8SFXwS2TKYoomvlYKHgo8IXyyFRAYIkOSJDkdjc+E2lZg0BpIQisMIRkfgHUCoMThQ7/fqUjUYYEKSQL6GhjTTUF+7wMRIp8jUuEphdTPdwhpV9fNrVNXPrllVP6NmNf20GtUMPtaqpv++VjWDlFrVDd6aVzd4WbuG4dPaNQ1j69Q0elinltH9urWM7tQzN75Rv7bxpQZ1TM63bFL9cM1q+ufUxGJINID+YutmNTe+ubHwMckPEuXuUfxThEUwZFTXuSqRF0FT4Hf4OjNCOBVOWSF0fNsEvF8kY2ovNTU1OYkL/h7sZ5kvnMtxzl+LwsBgSt5cxnEzQ8jRuiMMSwwW9Au+3vpNFuSEwRp7dut2mQTMzGYyS8vPn58VDBF0Pj5nixwxjHZ0OALSyIrBcXQ8KgagIo0HDQsuaFL6JSjjUut3nqYmS5wwkeUlvWNKALBEznLin7KYH37gpA4kQY5O5UoZZsZVMrS1NGARAyRQHbCmASKBEgDYOI5RDakL0EP9QPVAzUD1Y42BgXpBGqGgfhgwGMFQPaAKmIC0dvtyu8frFo5CBwEUH0cObpMZG+mbf/e0p+JumCfdCfNU3j3tqbwX7qW8f8ZLcf+MlzzmjLf8wVlv2YOz3iUPzvmUPDznU/zovG/R4wjfwrhIv4K4C3758Rf88+Iv+ucmXArIeRo1LwuJAXlPV2eH7piUYmxYGe8RNbhX8+h30Uve0/stRZxfFAYPV7aVhecADq4Ix1XWQrQJ0QrOAr5AGY+Di/p2a5JqXlWryMxIs8TU1Cyre/ceRd26dVMaG5sIiRgy/xkDAXQ5R09UODXHR+FT5O4HS/kYER2VO4/uhCkK4JWQ4uUnwf8pMAr+P1yEbxXjhtkDB7K8jCxWCHBYWnLqE9IP0gKZHlA3cMFA5aKDoVoAXiQp4phwDjgfQIiEBSQv4lnIoMHnNW517cYUrxNZPi8BkzzmsC0SiQTSCV72uz06NkyZ5dKreMKYLgUzXXopfNwGkP+MgVwJmDFIGTBzkGL+rMGyBbMHF82fNThvqeewvK3LbOUHN4wvOLrZ5dPPW1xSow7NyA7yGR6jpiYGwLjsFGN9nd171zjeuvrzrIRtgbZ3dq4ce+unNY7Xd68cG3log/N5kh/IiLvgB0ML599b6jk0oyyyc7iMQ0IyCdwSa1isnwsf5AcPRRHcIXCNQCKhgK9yrpO9nDpLjl4iN6+uj8Fz1G1cj1iB6/5Z614Gdw+emRlSdDLENXbdwlGpfbvUw2DOYqxKoc2YceTr40Nr164lb29vatmyBVLAACSUohnOPXISby0u4Xi2AMKMEMqOW0k7g8eSj9sAWaD38JxlXsMymjWsivsi1AnXG77X802WviIRByZUrNDamn26FMUKO3XirFNIBFi3kCaQQHAM4xjIOgqsYVQK5BSSEu4UjGpwIviKAExUNlAs5kAZravLCpevYBnJKYyOHOXIMQycx2IxeztiQJvjRS/WpnB+K9XOLr+Njkejcz6sQ0Rp2zMz44ILUu4u46I2GMHn97lBqkPKQVLGVzPVPRexf1oOl9AAPxh8aYLqgo9OfoAi909D4+Kaa37TB+RyvjXEpoWO+VZrLmHAJ696VT1I9sixlh2ecH5AuHO+8BlchAIeAlyTsgVuFPBtSHloDWrVqhUtWbyY4uPjKTExkR49ekRhYWEKf3//4p49exZXr14N/QZpmLMr2F7OGX6ce2sjZ7Ah4lWzmj7OEdQ2rOO7lbU08M8AmPiuOo/7TwFRVfrh7wNgSMBiRWWUOjosrUYNllSpEmeOQ9zixSAZsAYHQEAaa1yjWnAupBjug20urUklORMcMVNNjeUYGrIC89pMaWLCCkUiTv2//bFPi0+5CavyKXWbAuEzzmHLcRDwkF8WrgMgYdJ35PtNHwCVegUNZl7dgOqZG5GBnia4HDgd6osP+aBOuTuDx5ZwIbuP2whcsyyKsImTUhcOTMcAgoFx13tq/8K/HYBmehgcV+yGf//yzwKQi6PDVUUn6MhmF7wbKAsEgbxnz150+fJl2rlzJx0+fJhycnIoNTWV3r9/Tx8+fFAkJycrN27cSDVq1YXQKTmyaRxh0KNNlYiPyw/Q86vzqXE9MwCQmxnICxoIE9VFFUuqx79oG5/0ArGHLwgP+igScSMIU/ygRrdJpRzhh9UHwi8kUqKzYQTgOLYRmIYhgARMREDAD2EJCmsYBOBur9TVxQAhGgmjCuBAo3GSynFkxzCOeGftRJJCWWLCr0iDzwkMdJre31tGQ/u2ANAgSSCB8R5co2K7fv36pK+vh2NCUVbW0ijaFjSmLLykOEjwzXFSp+gnijwwHdID1m3s3Ml9ZZwq/fskYH51Uz1oi9s2Q9snlwEw5IslIJzg+U9XKw6sd0oz1NOEgChS16hE48Y5Unh4OJ0+fZrGjh2b3r59+/cTJ07MdnFxyRo3blzx1KlTaf78+RQZGUlBQSvI0MiYWjUxe3gv3PMh53Cns/Ti6gJl1+/rKzQrSVXBhzYEZYDbDXFg/OfKX15MxWIWJBKJhAdAckH9AFDw9wk8DmvwPhggUKnYh9UMZyjmRuBYiFgshtQAEBElwTFwL9zrkLpEDcQfHBNGAoD4psv39XKtB7XJH9q3xYfh/Vu96dO18YGze6eGc5IO5PdXgIdjHPgQhcgIobwnq2lgjyYAGweu+vXqUrdu3UoGDBggGzp0qNzV1VXu7e0tq127NsAO9ZEtlagBrDi/eMcK+yx6u7Hocw5ewV4kWMBCRt3veE3pV/S3ScCin+hxhG9OjWr68OddGDP8+9d/RgJyPFF2gHISVlKNavoQIOkG+nrk5ORE169fVx4/fry4e/fucJnACEPbC64wQYspvLy86MqVyzRxwgS0x+lhfRqGwxoufL4G2UbQYly7StS4kCzwwe3za/Rxg7+MPt6LDa6DSuLGkEZwRUCK4IUgmcDxUGEUSC4cg4UouC9wHscFRWVSDeoYbg2oMUg17nr+m8gAAX5/2KCOye2ES/Py8LIlL9cpEbCXvVon52KdvwE8AZCc2gVvS9lCVgNbY/Ao8c3ARo0a0dy5c0uio6MLMzIyFEqlkpKSkuQnT54saNOmDeqNwYWCOuF9UZ+4fWvH4ftFZYDP20M3TnhAJcLPGenjNiCXMxz+ajLC771LwV7kCmaYVzeA1jjsYPlDPAdAhPZ+7zr+N4F+pD9aQR3b1gVY5PXq1aOTJ0/S7t27ZS1btnwnlUoBPhiKCLNi8KPvYFTCjVLctm1bWrNmDf38889Us16ruAmjW3F1sBrUBu36GYB8vwMXwmDHb3B3fVVKPi6GqsmwHtwGqifvZIhr/ontE2Untk+k/eucKNBrOA3q+R2ZGlUhSdnsKqwVUomaTCpRk0slYsLowBwKdGqt6ga0eYkN5i0Uh+2aTGE7J1ODOsbwB97U0tRIRa5ecvQSZWrM8twy4wFp5EgnR1HJH0Qq+i8C5HAFIDh+AUmYymF9mwu+OvLw8FCePBlKBw8epO3bt1NcXJyciIqIqESpVMofPXqUY2lpiQaEMQVJiPqiET8d3OBcRBRRxgOzdyE8BrcO/iEpAqn4fzcAa1UzgEP6hN2I71/8GQmImPLrGwsTrQa2jpKIWZaaRIPGjx+vvH37ttLV1RXvB8k6o1+/fkcdHR2zR48enTx8+PBHzZo1e6ChoQHBwWkCKysrunbtGo0cPSbNRE8tcdTgtlmVNMo+/4vwW2l7IUyLaZowQrl+5gUSptB+1fxifOwbPO7DoY3OpZ8rjuZIKDJ10ckAxIur8wnzOnR1ND8DUCqVkFSCokZlAFQTvt9C7VvWLiOwdJVPVD1HSbeXJDdrVPWcukQt/OAG5/jcJ6ty7oV7ZZ/eNSX94AbnjMObxucc2uicd3CDcx7WhzY45x1Y71Swb+24kr1rHOV7VzsquPUaR/meVQ5K5CDaDWvDzZ5T19RTLF8eSFFRURQSEkJjxozJb926dXLfvn0LXFxcigMDAwt27NhRFB0dXRwREZHv4uKSa2JiIljtXGMO69cy7+2txTB8OOIddXgmOg5E+6rXlH6Kv00FF/5EcZF+WTWr6UM9Xh01pO0HDoAIP36BBITfbteqsdBEAHD6qJHWdObMGeXy5ctl1atXx7vdnTp1auDq1avvLl++nAIDA2ndunXv7O3t44yNjZOkUimnUps3b86139w5HtCEcD/Byf9UXSqB4EBSibDAnYZgAng9/t7sqxdMnwTXe7vMaxiX65WTsEqeHb8SQXdlyp2lyjUBVsraNQ05johvtahJxKQmFpNY9Pl7fUqRSCSIZWpU11R58eAMBb3bLM9NWKXIigtWYKReOjQDIh98EM5pIVoBPyKkDbgJeBcKCDlcPZjkBIklqAtILqh2EG2ocXnTpk1p/fr1FBMTowwKCpKZmppCpUJ9wumM80ApQBvSGzVqVLB//356/PgxjR49GvXl6iwScSM6pXPbuq/hwkGnPjrn81AsFsMwi5k5vqeSin5SclMEvgQUf+acop8o7oI/AAhVdmPkkLZpHP8FALn8Pj6X8be26QjtXuUAEAE4soCAALhblBYWFhhg783Nzd+BkixcuJB8fHxQlNieNGlSRqNGjV6qq6vDEKQOHTrQ2bNnacaMGaBZ4Pb4Dzs/flrtV4Ps926AJARMDH9bv7YxDe3bMmVAj6ZP+nRrkty7a+Ocbh0a5DSsa5KloS6Bu4XjGACbSPTZgYlRJlixnFTR0lQvat/S/MPAHt+97d2lcWqPTg0zrQa1zv2hTR2oPYh9cBL4qeCwFmKkQnwUVjMc3bC0hcwO7AO4QvgNo/1D8xat6NatW3ThwgVydnammjVrgm8iXHdQKpVmNG/e/H6PHj0uV6tWDeBGBxVYWlqWAISrV6+m9u3bC6pEMMCej/6x3fbM2ODn8AveDJ2TqK2l/tZu+PeZlL9XTu82/6ZF/kXSCr46SFiAS0jdop8xSamofm0jvOMxF5vOKZy0Bc1QTbAQHNqYAQe/p+D4pkt0fNtEvAf6RgkuFxcXR+CBGMCNGzeOhZGxYMECgC/Xx8cndd68eQpvb2/54MGDM3R0dNAuJeCBsJgnlBki4L74SgX+jaDK74Hnm/wmlUpbSyQiiF0ACQkHAAikh9BBkCpZ4rLvD2O04WXBHeBzAj+AmEboi7Mw+eiIACK4Y0B+ATaI7Rs2Q9snrZlvnYEpmVxxH/IW0xoXefz4eqnnsKfBfpYP1gRY313NFav7qwMwLXPUlYsHZ9zasGjkVU0N0VFTs5qvg4ODOefqnDlzUE+4X7aqq6v7du7c+eaQIUPI3d09fvny5ecmTZoU2alTJ0hVGB4yW1vbkrNnzyrhhhDekf9yAMJ4q++Ge8USXeYSO1s0qf7UaVSn5xw/RQ6iEM1QTfrkwMEDQzX6gW2hwMAp+Amz4p4kRM27/vrGwnuJtxbFvLq+MHqln9UFfT0tpFBdb9eiVsLhjc6xp3ZOfrR/vVPcnlUOL3YG278JWWH/Busdy+2Sti0b8x5zXTYttvl0bOuET1YDW0E4kKaWNsd9L126RCYmJni3940aNUry9PQkXgIW+fj4ZAYEBCjnz59faGVllVqlShVOk3Ts2JEbzDY2NrgOqXOqy1f5+FRvVH5buDFIJL4FIkgYfPsYeV5QjZAqArAANjhzobqwzhWJuE4FAHFutrFB5eTO7eqc6di27pFO7eoc/L6V+al2LWufb9u81oWa1fT3DerVfGd2/Mr33DRIRCD+qfBTG4W0K1i5QsExOkTXjs5IqyRlsf7zl6VduXKFhg8fXiCVSjFYDpiYmAT16tXr4axZswgcKCAgoMDPzy8pMDDw9qJFi67WrVsX1p+scePGhWfOnIFr5jMAeYsQvq0n2wLHZEJSPY7wza9upnfbenCbeISjEm8ukmE23ctrC2Qvrs6Xozy/Ml/xDOVygFIo/HG5sP80KkD+8uoC5YOz3rkeE/ucr1XdYLPFDw329enaGLFo+Frh7onVUJcADAh3IuMGGgA+VQxaaAdwRGgNUAtYshhwKNhO1tBQpwYNGih27typgMPZzIxzHFOdOnWUc+fOlS9atAjgk0ENQ01PmTLlU8uWLZNFZf/YRBMnTqSrV68qevfujTaBK+2rfHvlgfZH+5gHDBAirIKPGGI+MPbxn7vgh3hRjvDz4OP5ID6s+JkHcioa80Xlr9fnpMYEZaXcXZaZFL0kO+n2ktyk24tzk24vyUyNCcxQvNkg4wLswtRLYS0knpZfwx+YtZMenPOBesbgSFu/fiNUb4muri5AxSUhNGnS5LWzs3P6ggULivz9/Ut8fX0VPj4+igULFmT6+/u/bdu2LThojomJiTI0NFTp6+uLxoY0R8fD9YTBVlSjqn7qD23qPGvWsOpTqUSSoKuj+bJV05rJ3zWqltS0YbXkZg2rfmjaoGpakwZmWU3qm+U1rm9W0LieaXGjeqbyxvVMi5o0MM3Eb9huXM+0pFE905LG9c2Kkcunp6v1SU1N/KqShjRRU0OKAY1nc1EL/luI0CzgYXAZgbviHGgmSG/UH3wY2UeoK/gxePJHdamUmjRpkrtnz56Cffv2kampKYRESb169Uq8vLxKFi9enOzn5/cR7+zv758/fPjwTF1dXWg26tevH504cUIeEhJSDGOEpz5/hJlv9vsfxfHwT98d+FGpKjGK+cTS0yMGtLp/dq8bndg+ifKerOJn52Nm/9GyOQcIvEOCoSAVPWULHMl/PDtNIPMIvxX+RPNnDYRlGqpTRVe2d+8eOnr0KDoFdCHayMjoWf/+/TM8PDyKFy9eDI4D8HHEGyPe19e3pH///ui4NB0dHTp27Bg6Au+DwYTBVQijijdIsI8OxvkAAOLe6Hh0OCQUDCXBn4htgABaAIYTLFIMRhhL4LcYHKA1ABWnKgW1z1ub68RiMQYVkjaQ3gYOu5hPd5tXWjf8pwiSffHlqomlHBr/yI58TGQdwSKFsbCLB2/xvn37CmBkGRgY4L1yzc3NP7m5uaUvW7YsbdWqVTm+vr6Fffv2RV0Eh3L26dOn8168eEGdOnVSwJfKZy59M4D91RuVByb+dh4NLDQiRi06f/XcyX2OYsI3Zqa9vLYg9+5pz4zH530/YVb+u+ilHylli4wj3UgTQvTiz5b0EEJq/iL3gVC1z9u2bZt34MAB2rp1KwDIqSFzc/Nbzs7OsXPnzs0DsHx8fOQ+Pj7ZPj4+kIYcEO3s7D5qaGiA99Dx48eVACgPDOQQIpwIlYgCxzx4ELK+4elHKhmiPYj6ABxwz+D70PiEMP5VHe6IaaVAg08M8XQYWpBe4L7gxnDIA8RC2+G5eCY0DLQPPgSAWLz2r/wb+h/2n5qaGqY54J54ZznANGzYMOyjjz60b9/+45gxY2STJ0+mgQMH4hgndZs3b549e/bsj/CPBgUF4XyUyzo6Ol3/8KH/hhPACWAtwxWCikJKoJHfaqhL3hkZVP5kbFg5yciwcqyJkc41M+MqMD62TrDrGlr0fE0ml3kC6QcL8M8WXEc/0yr/YejIqy1btvpw6NAh5ebNm6FCIF0iatWqddrOzi5+zpw5BfPmzQPgCnx9fRNBuv38/DgATpo06aOhoWFq5cqVOZUzd+5cvAcGEb57h84HBcF/kuCfhpAhDlCoFqSSoeBc1YLPmKBgwSfohL/zwv2hClE4Kcu3HeLpSGFC/iQWgBAFg14o4OdC4U/7zVU/PrSZ3r17d+Xu3bvhjFd26dIF9KJAJBLlVa1ataBOnToyPT09zlquX7/+u127dj2Li4srgEcAPkNe+sHZ/B+7oHMwqw0GB4yQLDU17o+Tke0CVQSVBakE9QMVdVMiET8a3r9lrottlxIXm855420656Dg0w4OVj8oHaw7yrDtNKpjodOoTgVOozrlY43vmHDnWHeUOVp3VLjad6NmDU0B+Nfm5ua5R44cUW7duhUdjNF8xczM7KCVldVtDw+PfKhcSD4fH590rH19fZWenp65bm5uWXXr1s03MjKSnT59GuQc10NNIlH2Wy74LB0MCdxftWDAIB7+rT9nhgEDZzEGEw0dOjQ/JiaGS0IACLW1tfHcAiMjo5KhQ4eiLZCOlXv+/PkMOKe/++471BH8EtIcAwzLl4KfP/3vXQnWMka9HW+JgWMIqT/gQAAc9j83OO/aAKkGMME7IP6xBmAhSctzKfAo4V6QduBbuC+Owbn8TixicrFYrADRDgsLU2pqauJ+101MTMItLS1jIQGR4SHwP5BuuBwCAgKeDR8+PAO+P2traxk4IO/zQuIEPkfyLRZV2oKZYgjlwYgDv4O1i2kM5dPXhbb92udXkUgkoAVP1dXV093d3XPOnj0rgySEWnZ2dpZ5enrKd+3apYiIiFDu3bsX7UBGRkboL/SL6n8OQxr/Ry5QGyDMqkCD9YjMFlhtkIp4IUHlYBskHsCCZMQ+yC/OhTMZHQOeBTcEOBjWwhwPTDPEMfyOVHmEfwAWPC9vxYoVdPPmzbw+ffoAoEeNjIwiR40alTl79uy8gIAAcKHPIAwICMjw8vJ60Lhx44/9+/eHr0yB6EmfPn0gUZEoC4fr37kI6vrvfAa+RNtKLBZj3g0G6+0ePXq827FjhyIyMlIWExMjj4iIUAQFBSltbW2VxsbG6AuoY/QlBgc+v/cfCzyh4eAVx1ezQPzxAihQt3CFYBtSEdIOvAzAg+iHCwHbAjjBhQBGEPiqpfmFDfmcMnxhSSiQHijYx6e/wKsAfhzDpKR0S0vLvIsXL6bu27cvs3bt2g6lx9ysra2zx40b98TLyyshMDAwIzg4uCQ4OPiejY3NpRYtuO/9ldjb28sePHhQhMhJlSpVEAbEZHlB7Qjv+d+6Vq9UqRJCqzCGdmlpaRU2a9aMunbtCldLUadOnbi8SENDQ6HvYFRCKn+zT2v8qxoO0kh4CahYqFRYqAAZtvFiULGw/CANhXOxxohDYupftbRa866NtBkzZrxNSEj4VFBQsNre3n5NixYt3nTr1u3ZqFGj3lhZWWVYWFjkVatWDW6QS2ZmZm8dHR2L4P/bu3dvfoMGDVAXxDz/o7jOX+zAX6hxTU3NzrxaRV4mYu8IR6LdkdMJq36ZmpoavvsIY0t1+cW9VH/8d26rVgxfSoVnXnArAGjoaBgEkIIAI3xmkH7oaBwTgIhzoVLx96t/ZYHUhH/saY0aNbLWrl37PDY2FpZfYdeuXV+MGjWq0MHBgSwsLJSGhoYAe3Ht2rVTXF1d775+/Trj2rVrSqimSpUqIQYKn5qwqL6fcOy/cV3+PeC9wGQzCA188f63lvLX/dZ5/zHHR/HGgSDdAEZIQ/AKSEIhZozfcQyqF9tY428BvibUA5WJSe9IQMifPn16ZmRkZNbly5cLEeM9evQol5a1atUq5a5du7Ju3bqVcu/evU9btmyBHyxdU1MT4S04tfEO/x8WtBciXF+Vt/ef0lCCpQfCOrRU6mE6JkS7AMQ/WiN2CQn6V5bPJFlHRweOcY6Lampq0siRI5VLlizhohuwgleuXKmEobFt27bcpUuXymHxtmjRAnWDVAb3m9CoUSP4+P6Xl/86qfalnfEZCPwFmNSE6ZfIOIFqQ0dD5UL1Qiqi0+FnQpAbISR9/rqvaiCpVIq/IYU1DXUP1Z4rlUrlpqamiIvKW7VqpahRo4YwIBBaA20IF4vFoADC39oLA+pL332RDH0AAADBSURBVL3ivP/AFkAnwkqFRQnVCC4IQAB4sJARksI/8OAcqIOvAp7K++O5+AMcgDpCJBKlisXiEolEolRXV1doaGiQRMKllQP8CJFhHmsPnnh/qzqoVKdi89/RAqodie32PNnFPyCBY0FNw+IVpJ5Qx6+VPKrP1SwFIKw+fJkBjnIAEmUcD3zUAWE2fBZEdSkvyVV/q9j+L2oBVTD8K6v9V5/7V6/7V75bxbMqWqCiBSpaoKIFKlqgogUqWuBbtcD/ARIVtJPQHKzHAAAAAElFTkSuQmCC;" vertex="1" parent="1">
                    <mxGeometry x="110" y="230" width="160" height="80" as="geometry"/>
                </mxCell>
                <mxCell id="22" value="" style="ellipse;whiteSpace=wrap;html=1;aspect=fixed;" vertex="1" parent="1">
                    <mxGeometry x="129" y="418" width="70" height="70" as="geometry"/>
                </mxCell>
                <mxCell id="23" value="" style="ellipse;whiteSpace=wrap;html=1;aspect=fixed;" vertex="1" parent="1">
                    <mxGeometry x="114" y="418" width="70" height="70" as="geometry"/>
                </mxCell>
                <mxCell id="24" value="Money:" style="text;html=1;strokeColor=none;fillColor=none;align=center;verticalAlign=middle;whiteSpace=wrap;rounded=0;" vertex="1" parent="1">
                    <mxGeometry x="40" y="40" width="60" height="30" as="geometry"/>
                </mxCell>
                <mxCell id="25" value="Tier:" style="text;html=1;strokeColor=none;fillColor=none;align=center;verticalAlign=middle;whiteSpace=wrap;rounded=0;" vertex="1" parent="1">
                    <mxGeometry x="40" y="85" width="60" height="30" as="geometry"/>
                </mxCell>
                <mxCell id="26" value="Level:" style="text;html=1;strokeColor=none;fillColor=none;align=center;verticalAlign=middle;whiteSpace=wrap;rounded=0;" vertex="1" parent="1">
                    <mxGeometry x="40" y="141" width="60" height="30" as="geometry"/>
                </mxCell>
                <mxCell id="27" value="*Brick Wall background image*" style="text;html=1;strokeColor=none;fillColor=none;align=center;verticalAlign=middle;whiteSpace=wrap;rounded=0;" vertex="1" parent="1">
                    <mxGeometry x="425" y="86" width="205" height="30" as="geometry"/>
                </mxCell>
            </root>
        </mxGraphModel>
    </diagram>
</mxfile>